ffmpeg started on 2016-11-28 at 00:47:34
Report written to "Output/NVENCh264/results/ffmpeg/Told_town_cross_2160p50llhp5000k.log"
Command line:
Tools/ffmpeg/ffmpeg -i Output/NVENCh264/encoded/old_town_cross_2160p50llhp5000k.mkv -c:v rawvideo -pix_fmt yuv420p Output/NVENCh264/transcoded/old_town_cross_2160p50llhp5000k.yuv
ffmpeg version N-82227-gdb23fde Copyright (c) 2000-2016 the FFmpeg developers
  built with gcc 5.4.0 (Ubuntu 5.4.0-6ubuntu1~16.04.2) 20160609
  configuration: --prefix=/home/jaroslav/ffmpeg_build --pkg-config-flags=--static --extra-cflags=-I/home/jaroslav/ffmpeg_build/include --extra-ldflags=-L/home/jaroslav/ffmpeg_build/lib --bindir=/home/jaroslav/bin --enable-gpl --enable-libass --enable-libfdk-aac --enable-libfreetype --enable-libmp3lame --enable-libopus --enable-libtheora --enable-libvorbis --enable-libvpx --enable-libx264 --enable-libx265 --enable-nvenc --enable-libmfx --enable-libxvid --enable-libgsm --enable-libopencore-amrnb --enable-version3 --enable-nonfree
  libavutil      55. 35.100 / 55. 35.100
  libavcodec     57. 66.101 / 57. 66.101
  libavformat    57. 57.100 / 57. 57.100
  libavdevice    57.  2.100 / 57.  2.100
  libavfilter     6. 66.100 /  6. 66.100
  libswscale      4.  3.100 /  4.  3.100
  libswresample   2.  4.100 /  2.  4.100
  libpostproc    54.  2.100 / 54.  2.100
Input #0, matroska,webm, from 'Output/NVENCh264/encoded/old_town_cross_2160p50llhp5000k.mkv':
  Metadata:
    ENCODER         : Lavf57.57.100
  Duration: 00:00:10.00, start: 0.000000, bitrate: 4904 kb/s
    Stream #0:0: Video: h264 (Main), yuv420p(progressive), 3840x2160 [SAR 1:1 DAR 16:9], 50 fps, 50 tbr, 1k tbn, 100 tbc (default)
    Metadata:
      ENCODER         : Lavc57.66.101 h264_nvenc
      DURATION        : 00:00:10.000000000
Output #0, rawvideo, to 'Output/NVENCh264/transcoded/old_town_cross_2160p50llhp5000k.yuv':
  Metadata:
    encoder         : Lavf57.57.100
    Stream #0:0: Video: rawvideo (I420 / 0x30323449), yuv420p, 3840x2160 [SAR 1:1 DAR 16:9], q=2-31, 200 kb/s, 50 fps, 50 tbn, 50 tbc (default)
    Metadata:
      DURATION        : 00:00:10.000000000
      encoder         : Lavc57.66.101 rawvideo
Stream mapping:
  Stream #0:0 -> #0:0 (h264 (native) -> rawvideo (native))
Press [q] to stop, [?] for help
frame=   16 fps=0.0 q=-0.0 size=  194400kB time=00:00:00.32 bitrate=4976640.0kbits/s speed=0.632x    frame=   33 fps= 32 q=-0.0 size=  400950kB time=00:00:00.66 bitrate=4976640.0kbits/s speed=0.641x    frame=   50 fps= 32 q=-0.0 size=  607500kB time=00:00:01.00 bitrate=4976640.0kbits/s speed=0.645x    frame=   67 fps= 32 q=-0.0 size=  814050kB time=00:00:01.34 bitrate=4976640.0kbits/s speed=0.647x    frame=   84 fps= 32 q=-0.0 size= 1020600kB time=00:00:01.68 bitrate=4976640.0kbits/s speed=0.649x    frame=  101 fps= 32 q=-0.0 size= 1227150kB time=00:00:02.02 bitrate=4976640.0kbits/s speed=0.649x    frame=  118 fps= 32 q=-0.0 size= 1433700kB time=00:00:02.36 bitrate=4976640.0kbits/s speed=0.65x    frame=  135 fps= 32 q=-0.0 size= 1640250kB time=00:00:02.70 bitrate=4976640.0kbits/s speed=0.65x    frame=  150 fps= 32 q=-0.0 size= 1822500kB time=00:00:03.00 bitrate=4976640.0kbits/s speed=0.644x    frame=  167 fps= 32 q=-0.0 size= 2029050kB time=00:00:03.34 bitrate=4976640.0kbits/s speed=0.644x    frame=  184 fps= 32 q=-0.0 size= 2235600kB time=00:00:03.68 bitrate=4976640.0kbits/s speed=0.645x    frame=  201 fps= 32 q=-0.0 size= 2442150kB time=00:00:04.02 bitrate=4976640.0kbits/s speed=0.646x    frame=  218 fps= 32 q=-0.0 size= 2648700kB time=00:00:04.36 bitrate=4976640.0kbits/s speed=0.647x    frame=  235 fps= 32 q=-0.0 size= 2855250kB time=00:00:04.70 bitrate=4976640.0kbits/s speed=0.648x    frame=  251 fps= 32 q=-0.0 size= 3049650kB time=00:00:05.02 bitrate=4976640.0kbits/s speed=0.647x    frame=  267 fps= 32 q=-0.0 size= 3244050kB time=00:00:05.34 bitrate=4976640.0kbits/s speed=0.646x    frame=  282 fps= 32 q=-0.0 size= 3426300kB time=00:00:05.64 bitrate=4976640.0kbits/s speed=0.642x    frame=  297 fps= 32 q=-0.0 size= 3608550kB time=00:00:05.94 bitrate=4976640.0kbits/s speed=0.639x    frame=  312 fps= 32 q=-0.0 size= 3790800kB time=00:00:06.24 bitrate=4976640.0kbits/s speed=0.635x    frame=  325 fps= 31 q=-0.0 size= 3948750kB time=00:00:06.50 bitrate=4976640.0kbits/s speed=0.629x    frame=  338 fps= 31 q=-0.0 size= 4106700kB time=00:00:06.76 bitrate=4976640.0kbits/s speed=0.619x    frame=  347 fps= 30 q=-0.0 size= 4216050kB time=00:00:06.94 bitrate=4976640.0kbits/s speed=0.605x    frame=  363 fps= 30 q=-0.0 size= 4410450kB time=00:00:07.26 bitrate=4976640.0kbits/s speed=0.606x    frame=  377 fps= 30 q=-0.0 size= 4580550kB time=00:00:07.54 bitrate=4976640.0kbits/s speed=0.604x    frame=  390 fps= 30 q=-0.0 size= 4738500kB time=00:00:07.80 bitrate=4976640.0kbits/s speed=0.601x    frame=  406 fps= 30 q=-0.0 size= 4932900kB time=00:00:08.12 bitrate=4976640.0kbits/s speed=0.602x    frame=  421 fps= 30 q=-0.0 size= 5115150kB time=00:00:08.42 bitrate=4976640.0kbits/s speed=0.601x    frame=  437 fps= 30 q=-0.0 size= 5309550kB time=00:00:08.74 bitrate=4976640.0kbits/s speed=0.602x    frame=  451 fps= 30 q=-0.0 size= 5479650kB time=00:00:09.02 bitrate=4976640.0kbits/s speed=0.599x    frame=  465 fps= 30 q=-0.0 size= 5649750kB time=00:00:09.30 bitrate=4976640.0kbits/s speed=0.597x    frame=  479 fps= 30 q=-0.0 size= 5819850kB time=00:00:09.58 bitrate=4976640.0kbits/s speed=0.596x    frame=  487 fps= 29 q=-0.0 size= 5917050kB time=00:00:09.74 bitrate=4976640.0kbits/s speed=0.586x    frame=  500 fps= 29 q=-0.0 Lsize= 6075000kB time=00:00:10.00 bitrate=4976640.0kbits/s speed=0.587x    
video:6075000kB audio:0kB subtitle:0kB other streams:0kB global headers:0kB muxing overhead: 0.000000%
